<svg class="c-preloader_svg" version="1.1" xmlns="http://www.w3.org/2000/svg" xmlns:xlink="http://www.w3.org/1999/xlink" x="0px" y="0px" viewBox="0 0 442 377" style="translate: none; rotate: none; scale: none; opacity: 1; transform: translate(0px, -15%);" xml:space="preserve" data-preloader-svg=""> <g id="Layer_1"> <path data-main-path="" style="fill: none; stroke: rgb(142, 212, 98); stroke-width: 42.2489; stroke-linecap: round; stroke-linejoin: round; stroke-dashoffset: 0; stroke-dasharray: 1590.02px, 0.1px;" d="M42.6,355.3
c-92.6-276.8,143.8-378.4,157-219.2c11.7,140.3-70.9,161.3-70.9,91.4s65.6-147.7,134.4-119.8c76.5,31.1,50.4,215.9-7,195.3
c-41.9-15-1.4-119,58.6-148c83-40.1,153.7,60.2,62.5,200.2"></path> <linearGradient id="SVGID_1_" gradientUnits="userSpaceOnUse" x1="182.0984" y1="140.9491" x2="174.7973" y2="225.863" gradientTransform="matrix(1 0 0 -1 0 378)"> <stop offset="0" style="stop-color:#8ED462"></stop> <stop offset="1" style="stop-color:#368D32"></stop> </linearGradient> <path data-shadow-path-1="" style="opacity: 1; fill: url(&quot;#SVGID_1_&quot;);" d="M158.4,286.7c-9.4,0-17.9-6.3-20.4-15.8
c-3-11.3,3.8-22.8,15.1-25.8c2.5-0.7,10.5-6.1,17.2-23.3c5.1-13,10.4-35.2,9.1-70c0,0,6.8-7.6,17.2-14.7c9.6-6.6,23-12.2,23-12.2
c5.6,47.5,0.6,85.3-9.9,112.3C199.3,263.6,183,281,163.8,286C162,286.5,160.2,286.7,158.4,286.7z"></path> <linearGradient id="SVGID_00000091004650032210143340000018435886712561389709_" gradientUnits="userSpaceOnUse" x1="286.8518" y1="80.6815" x2="276.47" y2="215.998" gradientTransform="matrix(1 0 0 -1 0 378)"> <stop offset="0.141" style="stop-color:#8ED462"></stop> <stop offset="1" style="stop-color:#368D32"></stop> </linearGradient> <path data-shadow-path-2="" style="opacity: 1; fill: url(&quot;#SVGID_00000091004650032210143340000018435886712561389709_&quot;);" d="
M265,325.8c-5.3,0-10.6-0.9-16-2.9c-11-3.9-16.7-16-12.8-27c3.9-11,16-16.7,27-12.8c1.3,0.5,2.5,0.9,5.6-1.9
c12.3-11.3,21.3-44.3,20.6-77.8c0,0,5-7.5,18.4-17.9c12.8-9.9,20.9-13.5,20.9-13.5c9.6,53.2-3.6,115-31.3,140.4
C287.7,321.2,276.5,325.8,265,325.8z"></path> <path data-path-circle="" style="fill: rgb(142, 212, 98); translate: none; rotate: none; scale: none;" d="M279,67.9c18.7,0,33.9-15.2,33.9-33.9S297.7,0,279,0C260.2,0,245,15.2,245,33.9S260.2,67.9,279,67.9
                    z" data-svg-origin="245 0" transform="matrix(1,0,0,1,0,0)"></path> </g> </svg>