<svg xmlns="http://www.w3.org/2000/svg" xml:space="preserve" viewBox="0 0 1512 563" class="absolute top-0 left-0 h-full w-full will-change-[transform] max-md:transform-none!" data-scroll="" data-scroll-speed="-0.05" aria-hidden="true"><path fill="#f5e211" d="M555.3 555.2q-40.2 0-77.9-2.1c-59-3.3-140.5-12.3-193.9-36.6-24.4-11.1-42.3-23.3-54.7-37.2a73 73 0 0 1-19.7-59c3.9-30.6 27.2-58.7 71.3-86 31.9-19.7 75.5-39.6 129.7-59.2 91.4-33 209.7-63.7 316.5-82.3 118.9-20.7 219.1-.2 335 23.4q50.5 10.5 106.1 20.5c-19.8-45.3-46.7-79.1-81.9-103.3-32.5-22.3-71.4-35.9-119.1-41.7-92-11.2-197.8 10.4-282.7 27.7q-33.2 6.8-62.4 12.2C395.8 172.1 232.9 216.3-31 346a37.5 37.5 0 0 1-33.1-67.3c132.2-65 244.9-111.4 354.8-146 93.9-29.6 185.9-51.2 317.6-74.7q28-5.1 60.6-11.9c90.3-18.4 202.6-41.2 306.7-28.6 127.8 15.5 216.8 82.2 264.5 198.2q7 17 10.1 33.8c83 10.6 178.2 16 293.9 9a37.6 37.6 0 0 1 4.5 74.9 1637 1637 0 0 1-304.2-9.1 178 178 0 0 1-45.6 67.7c-41.8 40.3-107.8 74.5-196.4 101.8-75.4 23.2-166.4 41-263.1 51.3a1741 1741 0 0 1-184 10.1M284.1 428.6c2.3 2.9 9.5 10.1 30.4 19.6 70.2 31.9 241.6 41.1 416.9 22.3 195.8-20.9 351.1-70.5 415.5-132.6q12.9-12.4 20.4-25.1c-43.6-7.3-83.5-15.4-120.6-23-113-23-202.3-41.2-307.2-23a1934 1934 0 0 0-298.5 77c-48.9 17.4-88 34.7-116.3 51.4-30 17.7-38.4 29.5-40.6 33.4"></path><path fill="#ff705d" d="m99 234.6-5.1 2.2q-1-1.5-2.3-2.4c-1.3-.9-1.8-1-2.9-1.2q-1.5-.3-3.2-.2-1.6.2-3.2.9-2.9 1.3-4.5 3.7a10 10 0 0 0-1.7 5.8q-.1 3.3 1.7 7.4a18 18 0 0 0 4.3 6.3q2.5 2.3 5.4 2.7t5.8-.8q1.6-.7 2.8-1.7t2-2.4 1-2.9-.1-3.3l5.1-2.2q.7 2.7.4 5.2-.2 2.6-1.4 4.8a15 15 0 0 1-7.8 7.1q-4.4 2-8.6 1.3-4.3-.6-7.9-3.6t-5.9-8.3a23 23 0 0 1-2.1-10 15 15 0 0 1 9.6-13.6q2.7-1.2 5.3-1.4a14 14 0 0 1 9.7 2.6q2 1.5 3.6 4m23.4 17.4q-3.6 1.5-6.8 1-3.3-.5-6-2.8c-2.7-2.3-3.2-3.6-4.3-6.2a16 16 0 0 1-1.4-7.5q.2-3.6 2.2-6.3t5.5-4.2 6.8-1 6 2.8a16 16 0 0 1 4.3 6.2q1.7 4 1.4 7.4-.2 3.5-2.2 6.3a13 13 0 0 1-5.5 4.3m-1.8-4.1a7 7 0 0 0 3.3-2.8q1-1.8.9-4.2-.2-2.3-1.1-4.7a13 13 0 0 0-2.6-4.1 9 9 0 0 0-3.6-2.3 6 6 0 0 0-4.3.4 7 7 0 0 0-3.3 2.8 8 8 0 0 0-.9 4.2q.2 2.3 1.1 4.7a13 13 0 0 0 2.6 4.1 9 9 0 0 0 3.6 2.3 6 6 0 0 0 4.3-.4m14.5-19.4 6.1 15-4.9 2-10.3-25.2 4.7-1.9 1.7 4.1.3-.1q0-2.4 1.4-4.3a9 9 0 0 1 4.2-3.2 10 10 0 0 1 5-.8q2.4.3 4.3 2 2 1.6 3.2 4.8l6.6 16-4.9 2-6.3-15.5q-1.2-2.7-3.2-3.7a6 6 0 0 0-4.6.1 6 6 0 0 0-2.7 2q-1 1.3-1.2 3-.2 1.8.6 3.7m24.9-10.1 6 15.1-4.9 2-10.1-25.4 4.7-1.9 1.6 4.1.3-.1q0-2.4 1.5-4.3a9 9 0 0 1 4.3-3.1q2.6-1 5-.7t4.3 2 3.2 4.8l6.4 16.1-4.9 2-6.2-15.5a7 7 0 0 0-3.1-3.7 5 5 0 0 0-4.6 0 7 7 0 0 0-2.8 2 5 5 0 0 0-1.2 3q-.3 1.7.5 3.6m37 3.6q-3.8 1.5-7.1.9t-5.9-3a17 17 0 0 1-4.1-6.4q-1.5-3.9-1.2-7.5a12 12 0 0 1 2.3-6.2q2-2.7 5.6-4 2.1-.8 4.5-.9c2.4-.1 3 .2 4.5.8q2.2.9 4.1 3a19 19 0 0 1 3.2 5.5l.7 1.8-20.2 7.7-1.4-3.7 15.4-5.9a8 8 0 0 0-2.1-3.2q-1.4-1.2-3.2-1.5a7 7 0 0 0-3.7.4 7 7 0 0 0-3.3 2.4 8 8 0 0 0-.9 7.5l1.1 2.9q1 2.5 2.6 4t3.6 1.8a9 9 0 0 0 4.2-.5q1.3-.5 2.4-1.4t1.5-2 .5-2.5l5-.9a9 9 0 0 1-3.3 8.2 20 20 0 0 1-4.8 2.7m24.2-9.1q-3.7 1.3-7 .7t-5.8-3.2c-2.5-2.5-3-3.7-4-6.3q-1.4-4-1.1-7.4.3-3.6 2.4-6.2a12 12 0 0 1 5.7-4q2.9-1 5.6-.8t4.8 1.6 3.3 3.9l-4.8 1.8a6 6 0 0 0-7.3-2.3 6 6 0 0 0-3.2 2.4 7 7 0 0 0-1.3 4q-.2 2.2.9 5.1 1 2.8 2.6 4.5a9 9 0 0 0 3.6 2.3q2 .6 4.1-.2a6 6 0 0 0 3.8-3.7q.5-1.3.2-2.8l4.8-1.8q.6 2.6 0 5a9 9 0 0 1-2.5 4.4 12 12 0 0 1-4.8 3m15.5-35.2 1.4 4-14 5-1.4-4zm-12.5-2.5 5-1.8 8.7 24.3q.5 1.4 1.2 2 .8.6 1.5.6.8 0 1.6-.3l1-.5.7-.4 2.4 3.8-1.1.8-1.9.9q-2 .7-3.9.6a6.5 6.5 0 0 1-6-4.8zm24.3 27.3-9-25.7 5-1.8 9 25.7zm-7.9-30.6a3.4 3.4 0 0 1-4.3-1.9q-.4-1.2.2-2.4t1.9-1.7 2.5.1 1.7 1.8-.2 2.4q-.4 1.2-1.8 1.7m16.5 10.5 5.2 15.3-5 1.7-8.8-25.8 4.8-1.6 1.4 4.2.3-.1q.2-2.4 1.7-4.2t4.4-2.9q2.6-1 5-.5t4.2 2.2c1.8 1.8 2.2 2.9 2.9 5l5.6 16.4-5 1.7-5.4-15.8a6 6 0 0 0-3-3.9 6 6 0 0 0-4.6-.2q-1.8.6-2.9 1.8a6 6 0 0 0-1.4 2.9q0 1.8.6 3.8m39.6 15.2q-3.1 1-5.6.9t-4.3-1a10 10 0 0 1-3-2.2l3.8-3.2 1.7 1.2q1 .6 2.6.8 1.5.1 3.6-.5a9 9 0 0 0 4.3-2.9q1.5-2 .4-5l-1.7-5.1-.3.1-.7 2.3q-.4 1.3-1.8 2.5-1.2 1.2-3.6 2-3 1-6 .4-2.9-.6-5.3-3a16 16 0 0 1-3.7-6.5q-1.3-4.2-.9-7.5.5-3.4 2.4-5.8 2-2.4 5.1-3.4 2.4-.8 4.2-.5t2.9 1.1q1.2.8 1.9 1.5l.4-.1-1.4-4.2 4.9-1.6 8.6 26.5q1 3.3.2 6a9 9 0 0 1-3.2 4.5q-2.1 1.6-5.5 2.7m-4.9-14.8a7 7 0 0 0 3.4-2.2q1.2-1.5 1.3-3.7t-.7-4.9q-.9-2.6-2.3-4.4t-3.3-2.4a6 6 0 0 0-4.1.1 6 6 0 0 0-3.4 2.4 7 7 0 0 0-1.3 3.9q-.1 2.3.7 4.7.9 2.6 2.2 4.2t3.3 2.3a6 6 0 0 0 4.2 0m32.8 5.4q-1.2.3-2.1.4H321v-4.5q1.5 0 2.6-.4 1-.4 1.7-1.4a6 6 0 0 0 .7-3l.1-1.9-17.6-23.5 5.4-1.6 12.8 18.2.3-.1.5-22.3 5.5-1.7-1.8 32.8q-.1 2.3-.9 4a8 8 0 0 1-2.1 3 8 8 0 0 1-3.6 2m28.2-18.4q-3.7 1-6.9.2c-3.2-.8-4-1.8-5.6-3.5q-2.4-2.6-3.6-6.7t-.5-7.6a12 12 0 0 1 2.9-6q2.3-2.5 5.9-3.5 3.8-1 6.9-.2 3.3 1 5.6 3.5 2.4 2.6 3.6 6.7t.5 7.5a12 12 0 0 1-8.8 9.6m-1.3-4.3a7 7 0 0 0 3.6-2.4 7 7 0 0 0 1.3-4q.2-2.3-.6-4.8a15 15 0 0 0-2.1-4.4q-1.3-2-3.3-2.7a6 6 0 0 0-4.3-.1 7 7 0 0 0-3.6 2.4 8 8 0 0 0-1.4 4.1q-.2 2.3.6 4.8.7 2.6 2.1 4.4 1.3 1.9 3.3 2.7 2 .7 4.4 0m29.6-15.9-4.2-15.4 5.1-1.4 7.2 26.3-5 1.4-1.2-4.6-.3.1q-.3 2.4-2 4.3a9 9 0 0 1-4.6 2.7q-2.5.7-4.8.1a8 8 0 0 1-4-2.5q-1.7-2-2.6-5.2l-4.6-16.7 5.1-1.4 4.4 16.1a6 6 0 0 0 2.7 3.9 5 5 0 0 0 4.3.5 8 8 0 0 0 2.7-1.5q1.2-1.1 1.8-2.8t0-3.9"></path><path fill="#ff705d" d="m1117.1 253.4-.8 4.2-14.6-2.9.8-4.2zm-9.4-8.5 5.2 1-4.9 25.3q-.3 1.5 0 2.4t1 1.3a5 5 0 0 0 2.6.7h.8l.1 4.5-1.3.1q-.9 0-2.1-.2a8 8 0 0 1-3.7-1.5 6 6 0 0 1-2.4-2.9 7 7 0 0 1-.3-4.2zm18 38.4q-3.8-.7-6.2-3a11 11 0 0 1-3.4-5.7q-1-3.4-.2-7.6t2.9-7 5.3-4 6.9-.5 6.2 3a12 12 0 0 1 3.5 5.7q1 3.4.2 7.6t-2.9 7a12 12 0 0 1-5.3 4q-3.3 1.2-7 .5m.9-4.3q2.4.4 4.3-.5c1.9-.9 2.2-1.7 3-3q1.1-2 1.7-4.6.4-2.5.1-4.9a8 8 0 0 0-1.7-3.9 6 6 0 0 0-3.8-2.1 7 7 0 0 0-4.3.5 9 9 0 0 0-3 3q-1.1 2-1.7 4.6t-.1 4.9q.3 2.3 1.7 3.9a7 7 0 0 0 3.8 2.1m26.5 19.2q-1.2-.2-2.1-.6l-1.4-.6 2-4.1 2.5.8a3 3 0 0 0 2.1-.5q1-.6 2-2.3l1-1.7-5.1-28.9 5.6 1 3.2 22h.3l10.4-19.7 5.6 1-16.4 28.5q-1.2 2-2.6 3.2t-3.2 1.7q-1.8.6-3.9.2m34-4.2q-3.7-.6-6.3-2.8t-3.6-5.6c-1.1-3.4-.8-4.8-.4-7.5q.8-4.2 2.7-7.1t5.2-4.2q3.1-1.3 6.9-.7 3.7.6 6.3 2.8t3.6 5.6.4 7.6-2.7 7a13 13 0 0 1-5.2 4.2q-3.2 1.3-6.9.7m.7-4.4q2.5.4 4.3-.6a7 7 0 0 0 2.9-3.1 14 14 0 0 0 1.6-4.6q.5-2.5 0-4.9a9 9 0 0 0-1.8-3.9q-1.4-1.5-3.9-2t-4.3.7a8 8 0 0 0-3 3.1q-1 2-1.5 4.6t0 4.9 1.9 3.8a5 5 0 0 0 3.8 2m33.8-2.4 2.3-15.8 5.3.8-3.9 27-5.2-.8.7-4.7h-.3a8 8 0 0 1-8.8 3.9q-2.6-.4-4.4-1.8a8 8 0 0 1-2.6-3.9q-.7-2.4-.3-5.8l2.5-17.2 5.2.8-2.4 16.5q-.4 2.8.9 4.6 1.3 1.9 3.7 2.2 1.5.1 3.1-.3t2.8-1.9q1-1.2 1.4-3.6m8 12.6 3.6-27 5.1.7-.6 4.3h.3a7 7 0 0 1 3.1-3.1q2-1 4.4-.7l1.2.2 1.1.2-.7 5-1.1-.3q-.8-.3-1.6-.3-1.9-.2-3.4.4a6 6 0 0 0-2.6 1.9q-1 1.2-1.3 3l-2.2 16.5zm34.3 4.9q-2.5-.3-4.6-1.5a8 8 0 0 1-3-3.2 8 8 0 0 1-.7-4.6q.3-2.3 1.3-3.7a7 7 0 0 1 2.7-2.1q1.6-.7 3.5-.9l3.8-.2h4q1.5 0 2.3-.4t.8-1.3v-.1q.3-2.3-.9-3.7t-3.7-1.7q-2.7-.3-4.3.7a6 6 0 0 0-2.4 2.4l-4.8-1.7q1.2-2.4 3-3.7 2-1.4 4.2-1.8a15 15 0 0 1 8.2.6q1.8.6 3.3 1.8a7 7 0 0 1 2.3 3.2q.8 2 .5 4.9l-2 18-5.2-.6.4-3.7h-.2q-.6 1-1.8 1.8a8 8 0 0 1-2.8 1.3q-1.6.4-3.9.2m1.7-4.1q2.1.3 3.8-.4t2.6-2q1-1.4 1.2-2.9l.4-3.5q-.3.3-1.2.4l-1.9.2-2 .1h-1.7q-1.5 0-2.9.3a5 5 0 0 0-2.2 1.1q-.9.7-1 2.2-.3 2 1.1 3.1 1.6 1 3.8 1.4m34.4-4.2 1.5-15.9 5.3.5-2.6 27.1-5.2-.5.4-4.7h-.3a8 8 0 0 1-3.4 3.3 9 9 0 0 1-5.2.9 9 9 0 0 1-4.5-1.6 8 8 0 0 1-2.8-3.8q-.9-2.4-.6-5.7l1.7-17.3 5.3.5-1.6 16.8q-.3 2.8 1.1 4.6c1.4 1.8 2.2 1.9 3.8 2q1.5.1 3-.5t2.7-2 1.4-3.7m18.8 13.5a11 11 0 0 1-5.7-2.1q-2.4-2-3.7-5.2-1.2-3.2-.9-7.7t2.1-7.4q1.7-3 4.5-4.5t6-1.2q2.5.2 4 1.2t2.2 2.1l1.2 2.1h.3l1.1-13.5 5.3.4-2.8 36.3-5.2-.4.3-4.2h-.4l-1.5 1.9q-1 1-2.6 1.8c-1.6.8-2.6.5-4.2.4m1.5-4.5q2.2.1 4-.9 1.6-1 2.7-3.2 1-2.1 1.2-5t-.4-5a7 7 0 0 0-2.1-3.5 6 6 0 0 0-3.8-1.5q-2.4-.2-4.1.9-1.7 1-2.7 3.2-1 2.1-1.2 4.8t.4 5a7 7 0 0 0 2.1 3.6q1.5 1.5 3.9 1.6m16.8 5.3 1.8-27.2 5.3.3-1.7 27.2zm4.7-31.2q-1.4-.1-2.3-1.1-1-1-.8-2.3 0-1.3 1.1-2.2 1-.9 2.4-.8t2.3 1.1q1 1 .8 2.3t-1.1 2.2q-1 .9-2.4.8m16.6 33q-4-.2-6.8-2.1-2.9-2-4.2-5.1a18 18 0 0 1 .8-14.8 12 12 0 0 1 11.4-6.1q2.3.1 4.4 1t3.8 2.6 2.5 4.4.6 6.3l-.1 1.9-21.7-1.2.2-4 16.4.9a8 8 0 0 0-.6-3.8q-.8-1.7-2.3-2.7a6 6 0 0 0-3.5-1.1q-2.2-.1-4 .9-1.6 1-2.7 2.7a8 8 0 0 0-1.1 3.7l-.2 3.1a10 10 0 0 0 .7 4.7 8 8 0 0 0 2.5 3.1q1.7 1 4 1.2 1.5.1 2.8-.3 1.2-.3 2.2-1.2.9-.7 1.5-2.1l5 1.2a10 10 0 0 1-2.4 3.8q-1.6 1.5-4 2.4-2.2.8-5.2.6m20.9-15.8-.6 16.2-5.3-.2 1-27.3 5.1.2-.2 4.4h.3a8 8 0 0 1 3.1-3.4 9 9 0 0 1 5.1-1.1 9 9 0 0 1 4.8 1.4q2 1.2 3.1 3.6 1 2.4.9 5.7l-.6 17.3-5.3-.2.6-16.7q.1-3-1.4-4.7a5 5 0 0 0-4.2-1.8q-1.8 0-3.3.7t-2.3 2.3q-.8 1.4-.8 3.6m32.7 17.7q-4-.1-6.8-1.9a11 11 0 0 1-4.3-5.1 17 17 0 0 1-1.4-7.3q.1-4.2 1.7-7.3t4.5-4.9 6.7-1.7q3.1 0 5.5 1.3 2.4 1.2 3.9 3.3t1.7 4.8l-5.2-.1a6 6 0 0 0-1.9-3.3q-1.5-1.3-4-1.5-2.2 0-3.9 1.1a7 7 0 0 0-2.6 3.2q-1 2.1-1 5 0 3 .8 5.2a7 7 0 0 0 2.5 3.4q1.6 1.2 3.9 1.3 1.5 0 2.8-.5t2.1-1.6q.9-1 1.2-2.5l5.2.1a10 10 0 0 1-1.8 4.7q-1.5 2-3.9 3.2-2.5 1.2-5.7 1.1m25.9.3q-4 0-6.9-1.8a13 13 0 0 1-4.5-4.9q-1.5-3.2-1.5-7.4t1.6-7.4 4.4-5 6.6-1.8q2.2 0 4.5.8 2.1.8 3.9 2.4a11 11 0 0 1 2.7 4.3q1 2.6 1 6.3v1.9l-21.7-.1v-4l16.5.1q0-2-.8-3.7a7 7 0 0 0-6-3.6q-2.2 0-3.9 1.1t-2.6 2.8a8 8 0 0 0-.9 3.8v3.1q0 2.7.9 4.7a6 6 0 0 0 2.7 2.9q1.8 1 4.1 1 1.5 0 2.8-.4t2.2-1.3a6 6 0 0 0 1.4-2.1l5 .9a8 8 0 0 1-2.2 3.9q-1.5 1.6-3.9 2.6t-5.4.9"></path></svg>